<svg width="29" height="28" viewBox="0 0 29 28" fill="none" xmlns="http://www.w3.org/2000/svg">
<g id="fi_711155" clip-path="url(#clip0_264_7786)">
<g id="Group">
<g id="Group_2">
<path id="Vector" d="M28.4012 12.1322L24.6574 4.61304C24.4976 4.29246 24.1704 4.08984 23.8124 4.08984H5.18765C4.82961 4.08984 4.50241 4.29246 4.34262 4.61304L0.598766 12.1322C0.533687 12.2627 0.5 12.4068 0.5 12.5528V22.9663C0.5 23.4876 0.922516 23.9101 1.4438 23.9101H27.5561C28.0774 23.9101 28.4999 23.4876 28.4999 22.9663V12.5528C28.5 12.4068 28.4663 12.2627 28.4012 12.1322ZM5.77187 5.97749H23.2279L26.0476 11.6404H19.9427C19.4966 11.6404 19.1106 11.9566 19.0184 12.393C18.9847 12.5525 18.1504 16.2966 14.3427 16.2966C10.535 16.2966 9.70068 12.5525 9.66765 12.3968C9.57862 11.9566 9.19165 11.6404 8.74272 11.6404H2.95235L5.77187 5.97749ZM26.6124 22.0225H2.38765V13.5281H8.02637C8.68956 15.4607 10.5772 18.1843 14.3427 18.1843C18.1086 18.1843 19.9962 15.4607 20.6591 13.5281H26.6124V22.0225Z" fill="#8A8A8A"/>
</g>
</g>
</g>
<defs>
<clipPath id="clip0_264_7786">
<rect width="28" height="28" fill="white" transform="translate(0.5)"/>
</clipPath>
</defs>
</svg>
