<svg width="29" height="28" viewBox="0 0 29 28" fill="none" xmlns="http://www.w3.org/2000/svg">
<g id="fi_12008036" clip-path="url(#clip0_264_7931)">
<g id="Clip path group">
<mask id="mask0_264_7931" style="mask-type:luminance" maskUnits="userSpaceOnUse" x="0" y="0" width="29" height="28">
<g id="clip0_202_18455">
<path id="Vector" d="M0.698242 0H28.5382V28H0.698242V0Z" fill="white"/>
</g>
</mask>
<g mask="url(#mask0_264_7931)">
<g id="Group">
<path id="Vector_2" d="M3.59824 3.5H1.27824C0.958082 3.5 0.698242 3.23867 0.698242 2.91667V0.583333C0.698242 0.261333 0.958082 0 1.27824 0H3.59824C3.9184 0 4.17824 0.261333 4.17824 0.583333V2.91667C4.17824 3.23867 3.9184 3.5 3.59824 3.5ZM1.85824 2.33333H3.01824V1.16667H1.85824V2.33333Z" fill="#0A0A0C"/>
<path id="Vector_3" d="M27.9581 3.5H25.6381C25.3179 3.5 25.0581 3.23867 25.0581 2.91667V0.583333C25.0581 0.261333 25.3179 0 25.6381 0H27.9581C28.2783 0 28.5381 0.261333 28.5381 0.583333V2.91667C28.5381 3.23867 28.2783 3.5 27.9581 3.5ZM26.2181 2.33333H27.3781V1.16667H26.2181V2.33333Z" fill="#0A0A0C"/>
<path id="Vector_4" d="M3.59824 28H1.27824C0.958082 28 0.698242 27.7387 0.698242 27.4167V25.0833C0.698242 24.7613 0.958082 24.5 1.27824 24.5H3.59824C3.9184 24.5 4.17824 24.7613 4.17824 25.0833V27.4167C4.17824 27.7387 3.9184 28 3.59824 28ZM1.85824 26.8333H3.01824V25.6667H1.85824V26.8333Z" fill="#0A0A0C"/>
<path id="Vector_5" d="M27.9581 28H25.6381C25.3179 28 25.0581 27.7387 25.0581 27.4167V25.0833C25.0581 24.7613 25.3179 24.5 25.6381 24.5H27.9581C28.2783 24.5 28.5381 24.7613 28.5381 25.0833V27.4167C28.5381 27.7387 28.2783 28 27.9581 28ZM26.2181 26.8333H27.3781V25.6667H26.2181V26.8333Z" fill="#0A0A0C"/>
<path id="Vector_6" d="M23.3179 23.3332H5.91789C5.59773 23.3332 5.33789 23.0718 5.33789 22.7498V5.24984C5.33789 4.92784 5.59773 4.6665 5.91789 4.6665H23.3179C23.6381 4.6665 23.8979 4.92784 23.8979 5.24984V22.7498C23.8979 23.0718 23.6381 23.3332 23.3179 23.3332ZM6.49789 22.1665H22.7379V5.83317H6.49789V22.1665Z" fill="#0A0A0C"/>
<path id="Vector_7" d="M27.9583 28H1.27824C0.958082 28 0.698242 27.7387 0.698242 27.4167V0.583333C0.698242 0.261333 0.958082 0 1.27824 0H27.9583C28.2784 0 28.5383 0.261333 28.5383 0.583333V27.4167C28.5383 27.7387 28.2784 28 27.9583 28ZM1.85824 26.8333H27.3783V1.16667H1.85824V26.8333Z" fill="#0A0A0C"/>
<path id="Vector_8" d="M5.91787 5.83311C5.76939 5.83311 5.62091 5.77594 5.50723 5.66278L3.18723 3.32944C2.96103 3.10194 2.96103 2.73211 3.18723 2.50461C3.41343 2.27711 3.78115 2.27711 4.00735 2.50461L6.32735 4.83794C6.55355 5.06544 6.55355 5.43528 6.32735 5.66278C6.21483 5.77594 6.06635 5.83311 5.91787 5.83311Z" fill="#0A0A0C"/>
<path id="Vector_9" d="M23.3186 5.83311C23.1701 5.83311 23.0216 5.77594 22.9079 5.66278C22.6817 5.43528 22.6817 5.06544 22.9079 4.83794L25.2279 2.50461C25.4541 2.27711 25.8219 2.27711 26.0481 2.50461C26.2743 2.73211 26.2743 3.10194 26.0481 3.32944L23.7281 5.66278C23.6155 5.77594 23.4671 5.83311 23.3186 5.83311Z" fill="#0A0A0C"/>
<path id="Vector_10" d="M25.6386 25.6666C25.4901 25.6666 25.3416 25.6094 25.2279 25.4963L22.9079 23.1629C22.6817 22.9354 22.6817 22.5656 22.9079 22.3381C23.1341 22.1106 23.5019 22.1106 23.7281 22.3381L26.0481 24.6714C26.2743 24.8989 26.2743 25.2688 26.0481 25.4963C25.9355 25.6094 25.7871 25.6666 25.6386 25.6666Z" fill="#0A0A0C"/>
<path id="Vector_11" d="M3.59787 25.6666C3.44939 25.6666 3.30091 25.6094 3.18723 25.4963C2.96103 25.2688 2.96103 24.8989 3.18723 24.6714L5.50723 22.3381C5.73343 22.1106 6.10115 22.1106 6.32735 22.3381C6.55355 22.5656 6.55355 22.9354 6.32735 23.1629L4.00735 25.4963C3.89483 25.6094 3.74635 25.6666 3.59787 25.6666Z" fill="#0A0A0C"/>
</g>
</g>
</g>
</g>
<defs>
<clipPath id="clip0_264_7931">
<rect width="29" height="28" fill="white"/>
</clipPath>
</defs>
</svg>
